<?xml version="1.0" encoding="UTF-8"?>
<svg id="Calque_1" data-name="Calque 1" xmlns="http://www.w3.org/2000/svg" viewBox="0 0 364.2 354.6">
  <path d="m333.67,160.97h.19c0-8.58.03-17.17,0-25.75-.08-23.16-.12-46.32-.33-69.47-.07-7.77-1.99-15.21-5.57-22.13-9.55-18.43-27.35-25.15-46.95-19.92-12.14,3.24-22.06,10.55-29.84,20.06-15.08,18.42-29.75,37.19-44.07,56.22-17.43,23.16-34.31,46.75-51.45,70.13-19.32,26.35-38.59,52.74-58.07,78.97-5.03,6.77-10.47,13.33-16.36,19.36-5.13,5.25-10.46,5.27-15.36.68-2.15-2.02-4.11-4.89-4.78-7.7-1.38-5.75-2.46-11.71-2.57-17.61-.32-18.76-.16-37.53-.14-56.3,0-10.28-.12-20.57.26-30.84.16-4.2,1.15-8.47,2.39-12.51,1.87-6.11,7.87-9.5,13.92-7.57,3.99,1.28,7.98,3.31,11.28,5.88,11.32,8.81,22.4,17.94,33.45,27.08,3.75,3.1,7.65,4.06,12.17,2.2,4.79-1.96,7.77-5.58,8.86-10.54,1.08-4.87-.36-8.94-4.41-12.18-8.71-6.98-17.26-14.17-25.93-21.2-7.89-6.4-15.85-12.57-25.66-16.09-15.2-5.45-33.09-.27-42.77,12.81-7.01,9.48-9.46,20.38-9.53,31.81-.18,30.74-.14,61.49,0,92.24.04,9.87,2.06,19.39,6.71,28.23,5.8,11.03,14.6,18.47,26.85,21,14.86,3.07,27.18-2.43,37.01-13.26,6.54-7.21,12.32-15.14,18.12-22.97,15.71-21.22,31.27-42.54,46.86-63.85,11.53-15.76,22.99-31.58,34.54-47.32,9.78-13.33,19.54-26.69,29.52-39.87,11.01-14.53,22.03-29.07,33.5-43.23,6.01-7.41,12.8-14.23,21.99-18.01,6.93-2.85,14.31.03,17.5,6.84,2.28,4.87,2.62,9.96,2.62,15.17,0,54.6.02,109.21.02,163.81,0,6.39.24,12.8-.22,19.16-.28,3.89-1.28,7.86-2.7,11.51-2.08,5.34-8.49,8.1-13.67,5.94-4.47-1.87-9.07-3.87-12.89-6.77-10.55-8-20.77-16.45-31.05-24.81-15.85-12.89-31.67-25.83-47.45-38.81-2.84-2.33-6-2.78-9.27-1.79-5.46,1.65-8.93,5.44-10.35,10.99-1.39,5.42.75,9.35,4.94,12.77,24.18,19.71,48.18,39.65,72.46,59.23,9.74,7.85,20.25,14.38,33.23,15.87,14.4,1.65,29.09-5.66,36.28-18.26,5.22-9.16,6.74-19.03,6.73-29.34-.02-29.95,0-59.89,0-89.84Z"/>
</svg>