<?xml version="1.0" encoding="utf-8"?>
<svg version="1.1" id="Calque_1" xmlns="http://www.w3.org/2000/svg" xmlns:xlink="http://www.w3.org/1999/xlink" x="0px" y="0px"
     viewBox="0 0 28 28" style="enable-background:new 0 0 28 28;" xml:space="preserve">
<path d="M7.7,27.3h13.5c2.1,0,3.3-1.2,3.3-3.6V10.4c0-2.4-1.2-3.6-3.7-3.6H7.7C5.2,6.8,4,8,4,10.4v13.3C4,26.1,5.2,27.3,7.7,27.3z
     M7.7,25.4c-1.2,0-1.8-0.6-1.8-1.9V10.5c0-1.2,0.6-1.8,1.8-1.8h13.1c1.2,0,1.8,0.6,1.8,1.8v13.1c0,1.2-0.7,1.9-1.5,1.9H7.7z
     M6.5,4.9H22c-0.2-1.1-0.7-1.7-1.9-1.7H8.4C7.2,3.2,6.7,3.8,6.5,4.9z M8.6,1.6H20c-0.1-1-0.6-1.5-1.7-1.5h-7.9
    C9.2,0.1,8.7,0.6,8.6,1.6z"/>
</svg>