<svg width="28" height="28" viewBox="0 0 28 28" fill="none" xmlns="http://www.w3.org/2000/svg">
    <path d="M11.6406 24.6836C12.1445 24.6836 12.543 24.4609 12.8242 24.0273L23.8984 6.58984C24.1094 6.25 24.1914 5.99219 24.1914 5.72266C24.1914 5.07812 23.7695 4.65625 23.125 4.65625C22.6562 4.65625 22.3984 4.80859 22.1172 5.25391L11.5938 22.0234L6.13281 14.875C5.83984 14.4648 5.54688 14.3008 5.125 14.3008C4.45703 14.3008 4 14.7578 4 15.4023C4 15.6719 4.11719 15.9766 4.33984 16.2578L10.4219 24.0039C10.7734 24.4609 11.1367 24.6836 11.6406 24.6836Z" fill="black"/>
</svg>