<?xml version="1.0" encoding="utf-8"?>
<svg version="1.1" id="Calque_1" xmlns="http://www.w3.org/2000/svg" xmlns:xlink="http://www.w3.org/1999/xlink" x="0px" y="0px"
     viewBox="0 0 28 28" style="enable-background:new 0 0 28 28;" xml:space="preserve">
<path d="M7.7,27.2h13.5c2.1,0,3.3-1.2,3.3-3.6V10.3c0-2.4-1.2-3.6-3.7-3.6H7.7C5.2,6.7,4,7.9,4,10.3v13.3C4,26,5.2,27.2,7.7,27.2z
     M7.7,25.3c-1.2,0-1.8-0.6-1.8-1.9V10.4c0-1.2,0.6-1.8,1.8-1.8h13.1c1.2,0,1.8,0.6,1.8,1.8v13.1c0,1.2-0.7,1.9-1.5,1.9H7.7z
     M6.6,4.8H22c-0.2-1.1-0.7-1.7-1.9-1.7H8.4C7.2,3.1,6.7,3.7,6.6,4.8z M8.6,1.5H20c-0.1-1-0.6-1.5-1.7-1.5h-7.9
    C9.2,0,8.7,0.5,8.6,1.5z M13.4,25.7h8.4c1.3,0,1.7-0.8,1.7-1.5c-0.2-1.9-2.2-4-5.4-4c-3.4,0-5.5,2.4-5.5,4.3
    C12.5,25.3,12.9,25.7,13.4,25.7z M18,18.7c1.4,0,2.6-1.3,2.6-2.9c0-1.6-1.2-2.8-2.6-2.8c-1.4,0-2.6,1.2-2.6,2.8
    C15.4,17.5,16.6,18.7,18,18.7z M10.5,20.1c-2.9,0-4.7,2.1-4.8,3.9c0,0.9,0.4,1.6,1.6,1.6h4.1c-0.1-0.4-0.2-0.8-0.2-1.2
    c0-1.4,0.7-2.7,1.8-3.8C12.3,20.3,11.5,20.1,10.5,20.1z M10.5,18.9c1.2,0,2.3-1.1,2.3-2.5c0-1.4-1.1-2.4-2.3-2.4
    c-1.2,0-2.3,1.1-2.3,2.4C8.3,17.8,9.3,18.9,10.5,18.9z"/>
</svg>
