<svg width="33" height="28" viewBox="0 0 33 28" fill="none" xmlns="http://www.w3.org/2000/svg">
	<g clip-path="url(#clip0_1899_30567)">
		<path d="M1.6875 23.4336C2.16797 23.4336 2.56641 23.2812 3.03516 23L14.9766 15.9688C15.8086 15.4766 16.1719 14.9023 16.1719 14.2227C16.1719 13.5547 15.8086 12.9805 14.9766 12.4883L3.03516 5.45703C2.55469 5.17578 2.16797 5.02344 1.6875 5.02344C0.773438 5.02344 0 5.72656 0 7.02734V21.4297C0 22.7305 0.773438 23.4336 1.6875 23.4336ZM17.7891 23.4336C18.2695 23.4336 18.668 23.2812 19.1367 23L31.0898 15.9688C31.9102 15.4766 32.2734 14.9023 32.2734 14.2227C32.2734 13.5547 31.9102 12.9805 31.0898 12.4883L19.1367 5.45703C18.668 5.17578 18.2695 5.02344 17.7891 5.02344C16.875 5.02344 16.1016 5.72656 16.1016 7.02734V21.4297C16.1016 22.7305 16.875 23.4336 17.7891 23.4336Z" fill="black"/>
	</g>
	<defs>
		<clipPath id="clip0_1899_30567">
			<rect width="32.2734" height="18.4336" fill="white" transform="translate(0 5)"/>
		</clipPath>
	</defs>
</svg>