<svg width="28" height="28" viewBox="0 0 28 28" fill="none" xmlns="http://www.w3.org/2000/svg">
    <path d="M13.9391 25.8165C14.5367 25.8165 15.0055 25.3477 15.0055 24.7618V16.0665L18.5094 12.8321C19.8453 13.0079 21.2516 12.4571 22.482 11.2266L16.0367 4.7696C14.7945 6.00006 14.2789 7.38288 14.4664 8.73053L3.56797 20.461C3.12266 20.9415 3.05235 21.6094 3.60313 22.1602L2.10313 24.0938C1.9625 24.2813 1.95078 24.5508 2.16172 24.7618L2.50157 25.1133C2.70078 25.3126 2.97032 25.3243 3.18125 25.1602L5.11485 23.6485C5.64219 24.1993 6.32188 24.129 6.79063 23.6837L12.8727 18.0587V24.7618C12.8727 25.3477 13.3414 25.8165 13.9391 25.8165ZM4.775 21.4219L15.1109 10.4532C15.3102 10.793 15.5445 11.1094 15.8375 11.4258C16.1188 11.7188 16.4469 11.9883 16.7516 12.1758L5.85313 22.5001L4.775 21.4219ZM17.2086 3.586L23.6656 10.043C25.7281 8.00397 25.8102 5.39069 23.8297 3.42194C21.8609 1.47663 19.2711 1.5235 17.2086 3.586Z" fill="black"/>
</svg>
