<?xml version="1.0" encoding="utf-8"?>
<svg version="1.1" id="Calque_1" xmlns="http://www.w3.org/2000/svg" xmlns:xlink="http://www.w3.org/1999/xlink" x="0px" y="0px"
     viewBox="0 0 55.1 53.5" style="enable-background:new 0 0 55.1 53.5;" xml:space="preserve">
<style type="text/css">
    .st0{stroke:#000000;}
</style>
    <g transform="scale(1,-1) translate(0,-53.49609375)">
    <path class="st0" d="M29.1,5.8c3.1,0,7.7,2.2,7.7,8.3v18.7c0,1.2,0.2,1.4,1.3,1.7l10.2,2.3c0.8,0.2,1.3,0.8,1.3,1.5v7.5
        c0,1.2-1,2-2.1,1.7L36.2,45c-1.4-0.3-2-1-2-2.1L34.2,20c0-1.1-0.5-1.8-1.5-2l-3.4-0.7c-4.2-0.9-6.1-3-6.1-6.1
        C23.2,8,25.7,5.8,29.1,5.8z M6,37.5h20.5c0.3,0,0.6,0.2,0.6,0.5s-0.2,0.5-0.6,0.5H6c-0.3,0-0.6-0.2-0.6-0.5S5.7,37.5,6,37.5z
         M6,30.4h20.5c0.3,0,0.6,0.2,0.6,0.5c0,0.3-0.2,0.5-0.6,0.5H6c-0.3,0-0.6-0.2-0.6-0.5C5.5,30.7,5.7,30.4,6,30.4z M6,23.3h20.5
        c0.3,0,0.6,0.3,0.6,0.5c0,0.3-0.2,0.5-0.6,0.5H6c-0.3,0-0.6-0.2-0.6-0.5C5.5,23.5,5.7,23.3,6,23.3z"/>
</g>
</svg>